<svg xmlns="http://www.w3.org/2000/svg" xmlns:xlink="http://www.w3.org/1999/xlink" xmlns:s="https://github.com/nturley/netlistsvg" width="517" height="314">
  <style>svg {
    stroke:#000;
    fill:none;
  }
  text {
    fill:#000;
    stroke:none;
    font-size:10px;
    font-weight: bold;
    font-family: "Courier New", monospace;
  }
  .nodelabel {
    text-anchor: middle;
  }
  .inputPortLabel {
    text-anchor: end;
  }
  .splitjoinBody {
    fill:#000;
  }</style>
  <g s:type="and" transform="translate(374,35)" s:width="30" s:height="25" id="cell_$and$./controlMotor.v:19$167">
    <s:alias val="$and"/>
    <s:alias val="$logic_and"/>
    <s:alias val="$_AND_"/>
    <path d="M0,0 L0,25 L15,25 A15 12.5 0 0 0 15,0 Z" class="cell_$and$./controlMotor.v:19$167"/>
    <g s:x="0" s:y="5" s:pid="A"/>
    <g s:x="0" s:y="20" s:pid="B"/>
    <g s:x="30" s:y="12.5" s:pid="Y"/>
  </g>
  <g s:type="ge" transform="translate(245.66666666666666,27.5)" s:width="25" s:height="25" id="cell_$ge$./controlMotor.v:16$160">
    <s:alias val="$ge"/>
    <circle r="12.5" cx="12.5" cy="12.5" class="cell_$ge$./controlMotor.v:16$160"/>
    <line x1="7.5" x2="17.5" y1="7.5" y2="12.5" class="cell_$ge$./controlMotor.v:16$160"/>
    <line x1="7.5" x2="17.5" y1="17.5" y2="12.5" class="cell_$ge$./controlMotor.v:16$160"/>
    <line x1="7.5" x2="17.5" y1="20" y2="15" class="cell_$ge$./controlMotor.v:16$160"/>
    <g s:x="3" s:y="5" s:pid="A"/>
    <g s:x="3" s:y="20" s:pid="B"/>
    <g s:x="25" s:y="12.5" s:pid="Y"/>
  </g>
  <g s:type="not" transform="translate(309,95)" s:width="30" s:height="20" id="cell_$not$./controlMotor.v:18$161">
    <s:alias val="$_NOT_"/>
    <s:alias val="$not"/>
    <s:alias val="$logic_not"/>
    <path d="M0,0 L0,20 L20,10 Z" class="cell_$not$./controlMotor.v:18$161"/>
    <circle cx="23" cy="10" r="3" class="cell_$not$./controlMotor.v:18$161"/>
    <g s:x="0" s:y="10" s:pid="A"/>
    <g s:x="25" s:y="10" s:pid="Y"/>
  </g>
  <g s:type="not" transform="translate(244,282)" s:width="30" s:height="20" id="cell_$not$./controlMotor.v:18$162">
    <s:alias val="$_NOT_"/>
    <s:alias val="$not"/>
    <s:alias val="$logic_not"/>
    <path d="M0,0 L0,20 L20,10 Z" class="cell_$not$./controlMotor.v:18$162"/>
    <circle cx="23" cy="10" r="3" class="cell_$not$./controlMotor.v:18$162"/>
    <g s:x="0" s:y="10" s:pid="A"/>
    <g s:x="25" s:y="10" s:pid="Y"/>
  </g>
  <g s:type="not" transform="translate(244,175)" s:width="30" s:height="20" id="cell_$not$./controlMotor.v:19$165">
    <s:alias val="$_NOT_"/>
    <s:alias val="$not"/>
    <s:alias val="$logic_not"/>
    <path d="M0,0 L0,20 L20,10 Z" class="cell_$not$./controlMotor.v:19$165"/>
    <circle cx="23" cy="10" r="3" class="cell_$not$./controlMotor.v:19$165"/>
    <g s:x="0" s:y="10" s:pid="A"/>
    <g s:x="25" s:y="10" s:pid="Y"/>
  </g>
  <g s:type="or" transform="translate(309,240)" s:width="30" s:height="25" id="cell_$or$./controlMotor.v:18$163">
    <s:alias val="$or"/>
    <s:alias val="$logic_or"/>
    <s:alias val="$_OR_"/>
    <path d="M0,25 L0,25 L15,25 A15 12.5 0 0 0 15,0 L0,0" class="cell_$or$./controlMotor.v:18$163"/>
    <path d="M0,0 A30 25 0 0 1 0,25" class="cell_$or$./controlMotor.v:18$163"/>
    <g s:x="3" s:y="5" s:pid="A"/>
    <g s:x="3" s:y="20" s:pid="B"/>
    <g s:x="30" s:y="12.5" s:pid="Y"/>
  </g>
  <g s:type="or" transform="translate(374,100)" s:width="30" s:height="25" id="cell_$or$./controlMotor.v:18$164">
    <s:alias val="$or"/>
    <s:alias val="$logic_or"/>
    <s:alias val="$_OR_"/>
    <path d="M0,25 L0,25 L15,25 A15 12.5 0 0 0 15,0 L0,0" class="cell_$or$./controlMotor.v:18$164"/>
    <path d="M0,0 A30 25 0 0 1 0,25" class="cell_$or$./controlMotor.v:18$164"/>
    <g s:x="3" s:y="5" s:pid="A"/>
    <g s:x="3" s:y="20" s:pid="B"/>
    <g s:x="30" s:y="12.5" s:pid="Y"/>
  </g>
  <g s:type="or" transform="translate(309,180)" s:width="30" s:height="25" id="cell_$or$./controlMotor.v:19$166">
    <s:alias val="$or"/>
    <s:alias val="$logic_or"/>
    <s:alias val="$_OR_"/>
    <path d="M0,25 L0,25 L15,25 A15 12.5 0 0 0 15,0 L0,0" class="cell_$or$./controlMotor.v:19$166"/>
    <path d="M0,0 A30 25 0 0 1 0,25" class="cell_$or$./controlMotor.v:19$166"/>
    <g s:x="3" s:y="5" s:pid="A"/>
    <g s:x="3" s:y="20" s:pid="B"/>
    <g s:x="30" s:y="12.5" s:pid="Y"/>
  </g>
  <g s:type="generic" transform="translate(113,22)" s:width="30" s:height="40" id="cell_DIG_D_FF_Nbit_i0">
    <text x="15" y="-4" class="nodelabel cell_DIG_D_FF_Nbit_i0" s:attribute="ref">DIG_D_FF_9bit</text>
    <rect width="30" height="40" s:generic="body" class="cell_DIG_D_FF_Nbit_i0"/>
    <g transform="translate(0,10)" s:x="0" s:y="10" s:pid="in0" id="port_DIG_D_FF_Nbit_i0~C">
      <text x="-3" y="-4" class="inputPortLabel cell_DIG_D_FF_Nbit_i0">C</text>
    </g>
    <g transform="translate(0,30)" s:x="0" s:y="10" s:pid="in0" id="port_DIG_D_FF_Nbit_i0~D">
      <text x="-3" y="-4" class="inputPortLabel cell_DIG_D_FF_Nbit_i0">D</text>
    </g>
    <g transform="translate(30,10)" s:x="30" s:y="10" s:pid="out0" id="port_DIG_D_FF_Nbit_i0~Q">
      <text x="5" y="-4" style="fill:#000; stroke:none" class="cell_DIG_D_FF_Nbit_i0">Q</text>
    </g>
  </g>
  <g s:type="inputExt" transform="translate(12,87.5)" s:width="30" s:height="20" id="cell_distancia">
    <text x="15" y="-4" class="nodelabel cell_distancia" s:attribute="ref">distancia</text>
    <s:alias val="$_inputExt_"/>
    <path d="M0,0 L0,20 L15,20 L30,10 L15,0 Z" class="cell_distancia"/>
    <g s:x="28" s:y="10" s:pid="Y"/>
  </g>
  <g s:type="inputExt" transform="translate(12,22.5)" s:width="30" s:height="20" id="cell_clk">
    <text x="15" y="-4" class="nodelabel cell_clk" s:attribute="ref">clk</text>
    <s:alias val="$_inputExt_"/>
    <path d="M0,0 L0,20 L15,20 L30,10 L15,0 Z" class="cell_clk"/>
    <g s:x="28" s:y="10" s:pid="Y"/>
  </g>
  <g s:type="inputExt" transform="translate(101,261)" s:width="30" s:height="20" id="cell_respSeguidorLinea1">
    <text x="15" y="-4" class="nodelabel cell_respSeguidorLinea1" s:attribute="ref">respSeguidorLinea1</text>
    <s:alias val="$_inputExt_"/>
    <path d="M0,0 L0,20 L15,20 L30,10 L15,0 Z" class="cell_respSeguidorLinea1"/>
    <g s:x="28" s:y="10" s:pid="Y"/>
  </g>
  <g s:type="inputExt" transform="translate(101,175)" s:width="30" s:height="20" id="cell_respSeguidorLinea2">
    <text x="15" y="-4" class="nodelabel cell_respSeguidorLinea2" s:attribute="ref">respSeguidorLinea2</text>
    <s:alias val="$_inputExt_"/>
    <path d="M0,0 L0,20 L15,20 L30,10 L15,0 Z" class="cell_respSeguidorLinea2"/>
    <g s:x="28" s:y="10" s:pid="Y"/>
  </g>
  <g s:type="outputExt" transform="translate(439,102.5)" s:width="30" s:height="20" id="cell_m_izquierdo">
    <text x="15" y="-4" class="nodelabel cell_m_izquierdo" s:attribute="ref">m_izquierdo</text>
    <s:alias val="$_outputExt_"/>
    <path d="M30,0 L30,20 L15,20 L0,10 L15,0 Z" class="cell_m_izquierdo"/>
    <g s:x="0" s:y="10" s:pid="A"/>
  </g>
  <g s:type="outputExt" transform="translate(439,37.5)" s:width="30" s:height="20" id="cell_m_derecho">
    <text x="15" y="-4" class="nodelabel cell_m_derecho" s:attribute="ref">m_derecho</text>
    <s:alias val="$_outputExt_"/>
    <path d="M30,0 L30,20 L15,20 L0,10 L15,0 Z" class="cell_m_derecho"/>
    <g s:x="0" s:y="10" s:pid="A"/>
  </g>
  <g s:type="constant" transform="translate(101,110)" s:width="30" s:height="20" id="cell_1111">
    <text x="15" y="-4" class="nodelabel cell_1111" s:attribute="ref">0xf</text>
    <s:alias val="$_constant_"/>
    <rect width="30" height="20" class="cell_1111"/>
    <g s:x="30" s:y="10" s:pid="Y"/>
  </g>
  <line x1="270.66666666666663" x2="374" y1="40" y2="40" class="net_16"/>
  <line x1="270.66666666666663" x2="284" y1="40" y2="40" class="net_16"/>
  <line x1="284" x2="284" y1="40" y2="105" class="net_16"/>
  <circle cx="284" cy="40" r="2" style="fill:#000" class="net_16"/>
  <line x1="284" x2="309" y1="105" y2="105" class="net_16"/>
  <line x1="339" x2="349" y1="192.5" y2="192.5" class="net_17"/>
  <line x1="349" x2="349" y1="192.5" y2="55" class="net_17"/>
  <line x1="349" x2="374" y1="55" y2="55" class="net_17"/>
  <line x1="144" x2="248.66666666666666" y1="32.5" y2="32.5" class="net_18,19,20,21,22,23,24,25,26"/>
  <line x1="131" x2="219" y1="120" y2="120" class="net_31,32,33,34"/>
  <line x1="219" x2="219" y1="120" y2="47.5" class="net_31,32,33,34"/>
  <line x1="219" x2="248.66666666666666" y1="47.5" y2="47.5" class="net_31,32,33,34"/>
  <line x1="129" x2="219" y1="271" y2="271" class="net_12"/>
  <line x1="219" x2="219" y1="271" y2="292" class="net_12"/>
  <circle cx="219" cy="271" r="2" style="fill:#000" class="net_12"/>
  <line x1="219" x2="244" y1="292" y2="292" class="net_12"/>
  <line x1="129" x2="284" y1="271" y2="271" class="net_12"/>
  <line x1="284" x2="284" y1="271" y2="200" class="net_12"/>
  <line x1="284" x2="312" y1="200" y2="200" class="net_12"/>
  <line x1="129" x2="244" y1="185" y2="185" class="net_13"/>
  <line x1="129" x2="219" y1="185" y2="185" class="net_13"/>
  <line x1="219" x2="219" y1="185" y2="260" class="net_13"/>
  <circle cx="219" cy="185" r="2" style="fill:#000" class="net_13"/>
  <line x1="219" x2="312" y1="260" y2="260" class="net_13"/>
  <line x1="269" x2="294" y1="292" y2="292" class="net_28"/>
  <line x1="294" x2="294" y1="292" y2="245" class="net_28"/>
  <line x1="294" x2="312" y1="245" y2="245" class="net_28"/>
  <line x1="334" x2="377" y1="105" y2="105" class="net_27"/>
  <line x1="339" x2="359" y1="252.5" y2="252.5" class="net_30"/>
  <line x1="359" x2="359" y1="252.5" y2="120" class="net_30"/>
  <line x1="359" x2="377" y1="120" y2="120" class="net_30"/>
  <line x1="269" x2="312" y1="185" y2="185" class="net_29"/>
  <line x1="40" x2="113" y1="32.5" y2="32.5" class="net_11"/>
  <line x1="40" x2="76" y1="97.5" y2="97.5" class="net_2,3,4,5,6,7,8,9,10"/>
  <line x1="76" x2="76" y1="97.5" y2="52.5" class="net_2,3,4,5,6,7,8,9,10"/>
  <line x1="76" x2="113" y1="52.5" y2="52.5" class="net_2,3,4,5,6,7,8,9,10"/>
  <line x1="404" x2="439" y1="112.5" y2="112.5" class="net_14"/>
  <line x1="404" x2="439" y1="47.5" y2="47.5" class="net_15"/>
</svg>
