<svg xmlns="http://www.w3.org/2000/svg" xmlns:xlink="http://www.w3.org/1999/xlink" xmlns:s="https://github.com/nturley/netlistsvg" width="1503" height="1060">
  <style>svg {
    stroke:#000;
    fill:none;
  }
  text {
    fill:#000;
    stroke:none;
    font-size:10px;
    font-weight: bold;
    font-family: "Courier New", monospace;
  }
  .nodelabel {
    text-anchor: middle;
  }
  .inputPortLabel {
    text-anchor: end;
  }
  .splitjoinBody {
    fill:#000;
  }</style>
  <g s:type="not" transform="translate(1271.5,87.5)" s:width="30" s:height="20" id="cell_$not$./top_inicial.v:111$1">
    <s:alias val="$_NOT_"/>
    <s:alias val="$not"/>
    <s:alias val="$logic_not"/>
    <path d="M0,0 L0,20 L20,10 Z" class="cell_$not$./top_inicial.v:111$1"/>
    <circle cx="23" cy="10" r="3" class="cell_$not$./top_inicial.v:111$1"/>
    <g s:x="0" s:y="10" s:pid="A"/>
    <g s:x="25" s:y="10" s:pid="Y"/>
  </g>
  <g s:type="not" transform="translate(1271.5,152.5)" s:width="30" s:height="20" id="cell_$not$./top_inicial.v:112$2">
    <s:alias val="$_NOT_"/>
    <s:alias val="$not"/>
    <s:alias val="$logic_not"/>
    <path d="M0,0 L0,20 L20,10 Z" class="cell_$not$./top_inicial.v:112$2"/>
    <circle cx="23" cy="10" r="3" class="cell_$not$./top_inicial.v:112$2"/>
    <g s:x="0" s:y="10" s:pid="A"/>
    <g s:x="25" s:y="10" s:pid="Y"/>
  </g>
  <g s:type="not" transform="translate(1271.5,400.5)" s:width="30" s:height="20" id="cell_$not$./top_inicial.v:113$3">
    <s:alias val="$_NOT_"/>
    <s:alias val="$not"/>
    <s:alias val="$logic_not"/>
    <path d="M0,0 L0,20 L20,10 Z" class="cell_$not$./top_inicial.v:113$3"/>
    <circle cx="23" cy="10" r="3" class="cell_$not$./top_inicial.v:113$3"/>
    <g s:x="0" s:y="10" s:pid="A"/>
    <g s:x="25" s:y="10" s:pid="Y"/>
  </g>
  <g s:type="not" transform="translate(1271.5,335.5)" s:width="30" s:height="20" id="cell_$not$./top_inicial.v:114$4">
    <s:alias val="$_NOT_"/>
    <s:alias val="$not"/>
    <s:alias val="$logic_not"/>
    <path d="M0,0 L0,20 L20,10 Z" class="cell_$not$./top_inicial.v:114$4"/>
    <circle cx="23" cy="10" r="3" class="cell_$not$./top_inicial.v:114$4"/>
    <g s:x="0" s:y="10" s:pid="A"/>
    <g s:x="25" s:y="10" s:pid="Y"/>
  </g>
  <g s:type="generic" transform="translate(1283.8,217.5)" s:width="30" s:height="40" id="cell_colocarPunto_1">
    <text x="15" y="-4" class="nodelabel cell_colocarPunto_1" s:attribute="ref">colocarPunto</text>
    <rect width="30" height="80" s:generic="body" class="cell_colocarPunto_1"/>
    <g transform="translate(0,10)" s:x="0" s:y="10" s:pid="in0" id="port_colocarPunto_1~centenas">
      <text x="-3" y="-4" class="inputPortLabel cell_colocarPunto_1">centenas</text>
    </g>
    <g transform="translate(0,30)" s:x="0" s:y="10" s:pid="in0" id="port_colocarPunto_1~echo">
      <text x="-3" y="-4" class="inputPortLabel cell_colocarPunto_1">echo</text>
    </g>
    <g transform="translate(0,50)" s:x="0" s:y="10" s:pid="in0" id="port_colocarPunto_1~transmitido">
      <text x="-3" y="-4" class="inputPortLabel cell_colocarPunto_1">transmitido</text>
    </g>
    <g transform="translate(0,70)" s:x="0" s:y="10" s:pid="in0" id="port_colocarPunto_1~unidades">
      <text x="-3" y="-4" class="inputPortLabel cell_colocarPunto_1">unidades</text>
    </g>
    <g transform="translate(30,10)" s:x="30" s:y="10" s:pid="out0" id="port_colocarPunto_1~H">
      <text x="5" y="-4" style="fill:#000; stroke:none" class="cell_colocarPunto_1">H</text>
    </g>
  </g>
  <g s:type="generic" transform="translate(684.5,118)" s:width="30" s:height="40" id="cell_contadorSD1">
    <text x="15" y="-4" class="nodelabel cell_contadorSD1" s:attribute="ref">contadorSeleccionarDisplay</text>
    <rect width="30" height="20" s:generic="body" class="cell_contadorSD1"/>
    <g transform="translate(0,10)" s:x="0" s:y="10" s:pid="in0" id="port_contadorSD1~C">
      <text x="-3" y="-4" class="inputPortLabel cell_contadorSD1">C</text>
    </g>
    <g transform="translate(30,10)" s:x="30" s:y="10" s:pid="out0" id="port_contadorSD1~out">
      <text x="5" y="-4" style="fill:#000; stroke:none" class="cell_contadorSD1">out</text>
    </g>
  </g>
  <g s:type="generic" transform="translate(1292,965)" s:width="30" s:height="40" id="cell_controlMotor_1">
    <text x="15" y="-4" class="nodelabel cell_controlMotor_1" s:attribute="ref">controlMotor</text>
    <rect width="30" height="80" s:generic="body" class="cell_controlMotor_1"/>
    <g transform="translate(0,10)" s:x="0" s:y="10" s:pid="in0" id="port_controlMotor_1~clk">
      <text x="-3" y="-4" class="inputPortLabel cell_controlMotor_1">clk</text>
    </g>
    <g transform="translate(0,30)" s:x="0" s:y="10" s:pid="in0" id="port_controlMotor_1~distancia">
      <text x="-3" y="-4" class="inputPortLabel cell_controlMotor_1">distancia</text>
    </g>
    <g transform="translate(0,50)" s:x="0" s:y="10" s:pid="in0" id="port_controlMotor_1~respSeguidorLinea1">
      <text x="-3" y="-4" class="inputPortLabel cell_controlMotor_1">respSeguidorLinea1</text>
    </g>
    <g transform="translate(0,70)" s:x="0" s:y="10" s:pid="in0" id="port_controlMotor_1~respSeguidorLinea2">
      <text x="-3" y="-4" class="inputPortLabel cell_controlMotor_1">respSeguidorLinea2</text>
    </g>
    <g transform="translate(30,10)" s:x="30" s:y="10" s:pid="out0" id="port_controlMotor_1~m_derecho">
      <text x="5" y="-4" style="fill:#000; stroke:none" class="cell_controlMotor_1">m_derecho</text>
    </g>
    <g transform="translate(30,30)" s:x="30" s:y="10" s:pid="out0" id="port_controlMotor_1~m_izquierdo">
      <text x="5" y="-4" style="fill:#000; stroke:none" class="cell_controlMotor_1">m_izquierdo</text>
    </g>
  </g>
  <g s:type="generic" transform="translate(508,118)" s:width="30" s:height="40" id="cell_divFreq_i4">
    <text x="15" y="-4" class="nodelabel cell_divFreq_i4" s:attribute="ref">divFreq</text>
    <rect width="30" height="20" s:generic="body" class="cell_divFreq_i4"/>
    <g transform="translate(0,10)" s:x="0" s:y="10" s:pid="in0" id="port_divFreq_i4~cl">
      <text x="-3" y="-4" class="inputPortLabel cell_divFreq_i4">cl</text>
    </g>
    <g transform="translate(30,10)" s:x="30" s:y="10" s:pid="out0" id="port_divFreq_i4~dvcl">
      <text x="5" y="-4" style="fill:#000; stroke:none" class="cell_divFreq_i4">dvcl</text>
    </g>
  </g>
  <g s:type="generic" transform="translate(951,217.5)" s:width="30" s:height="40" id="cell_mostrarDisplay_io">
    <text x="15" y="-4" class="nodelabel cell_mostrarDisplay_io" s:attribute="ref">mostrarDisplay</text>
    <rect width="30" height="100" s:generic="body" class="cell_mostrarDisplay_io"/>
    <g transform="translate(0,10)" s:x="0" s:y="10" s:pid="in0" id="port_mostrarDisplay_io~displaySeleccionado">
      <text x="-3" y="-4" class="inputPortLabel cell_mostrarDisplay_io">displaySeleccionado</text>
    </g>
    <g transform="translate(0,30)" s:x="0" s:y="10" s:pid="in0" id="port_mostrarDisplay_io~distancia_calculada">
      <text x="-3" y="-4" class="inputPortLabel cell_mostrarDisplay_io">distancia_calculada</text>
    </g>
    <g transform="translate(0,50)" s:x="0" s:y="10" s:pid="in0" id="port_mostrarDisplay_io~echo">
      <text x="-3" y="-4" class="inputPortLabel cell_mostrarDisplay_io">echo</text>
    </g>
    <g transform="translate(30,10)" s:x="30" s:y="10" s:pid="out0" id="port_mostrarDisplay_io~centenas">
      <text x="5" y="-4" style="fill:#000; stroke:none" class="cell_mostrarDisplay_io">centenas</text>
    </g>
    <g transform="translate(30,30)" s:x="30" s:y="10" s:pid="out0" id="port_mostrarDisplay_io~decenas">
      <text x="5" y="-4" style="fill:#000; stroke:none" class="cell_mostrarDisplay_io">decenas</text>
    </g>
    <g transform="translate(30,50)" s:x="30" s:y="10" s:pid="out0" id="port_mostrarDisplay_io~decimal">
      <text x="5" y="-4" style="fill:#000; stroke:none" class="cell_mostrarDisplay_io">decimal</text>
    </g>
    <g transform="translate(30,70)" s:x="30" s:y="10" s:pid="out0" id="port_mostrarDisplay_io~unidades">
      <text x="5" y="-4" style="fill:#000; stroke:none" class="cell_mostrarDisplay_io">unidades</text>
    </g>
    <g transform="translate(30,90)" s:x="30" s:y="10" s:pid="out0" id="port_mostrarDisplay_io~valorNumericoDisplay">
      <text x="5" y="-4" style="fill:#000; stroke:none" class="cell_mostrarDisplay_io">valorNumericoDisplay</text>
    </g>
  </g>
  <g s:type="generic" transform="translate(628,186)" s:width="30" s:height="40" id="cell_obtener_D_U_D_C_Distancia_io">
    <text x="15" y="-4" class="nodelabel cell_obtener_D_U_D_C_Distancia_io" s:attribute="ref">obtener_D_U_D_C_Distancia</text>
    <rect width="30" height="60" s:generic="body" class="cell_obtener_D_U_D_C_Distancia_io"/>
    <g transform="translate(0,10)" s:x="0" s:y="10" s:pid="in0" id="port_obtener_D_U_D_C_Distancia_io~clk">
      <text x="-3" y="-4" class="inputPortLabel cell_obtener_D_U_D_C_Distancia_io">clk</text>
    </g>
    <g transform="translate(0,30)" s:x="0" s:y="10" s:pid="in0" id="port_obtener_D_U_D_C_Distancia_io~echo">
      <text x="-3" y="-4" class="inputPortLabel cell_obtener_D_U_D_C_Distancia_io">echo</text>
    </g>
    <g transform="translate(30,10)" s:x="30" s:y="10" s:pid="out0" id="port_obtener_D_U_D_C_Distancia_io~distanciaEnElRango">
      <text x="5" y="-4" style="fill:#000; stroke:none" class="cell_obtener_D_U_D_C_Distancia_io">distanciaEnElRango</text>
    </g>
    <g transform="translate(30,30)" s:x="30" s:y="10" s:pid="out0" id="port_obtener_D_U_D_C_Distancia_io~distancia_calculada">
      <text x="5" y="-4" style="fill:#000; stroke:none" class="cell_obtener_D_U_D_C_Distancia_io">distancia_calculada</text>
    </g>
    <g transform="translate(30,50)" s:x="30" s:y="10" s:pid="out0" id="port_obtener_D_U_D_C_Distancia_io~distancia_temporal">
      <text x="5" y="-4" style="fill:#000; stroke:none" class="cell_obtener_D_U_D_C_Distancia_io">distancia_temporal</text>
    </g>
  </g>
  <g s:type="generic" transform="translate(1271.5,22)" s:width="30" s:height="40" id="cell_senalTriger_i6">
    <text x="15" y="-4" class="nodelabel cell_senalTriger_i6" s:attribute="ref">senalTriger</text>
    <rect width="30" height="20" s:generic="body" class="cell_senalTriger_i6"/>
    <g transform="translate(0,10)" s:x="0" s:y="10" s:pid="in0" id="port_senalTriger_i6~clk">
      <text x="-3" y="-4" class="inputPortLabel cell_senalTriger_i6">clk</text>
    </g>
    <g transform="translate(30,10)" s:x="30" s:y="10" s:pid="out0" id="port_senalTriger_i6~pulso">
      <text x="5" y="-4" style="fill:#000; stroke:none" class="cell_senalTriger_i6">pulso</text>
    </g>
  </g>
  <g s:type="inputExt" transform="translate(430,175.5)" s:width="30" s:height="20" id="cell_clk">
    <text x="15" y="-4" class="nodelabel cell_clk" s:attribute="ref">clk</text>
    <s:alias val="$_inputExt_"/>
    <path d="M0,0 L0,20 L15,20 L30,10 L15,0 Z" class="cell_clk"/>
    <g s:x="28" s:y="10" s:pid="Y"/>
  </g>
  <g s:type="inputExt" transform="translate(508,206.5)" s:width="30" s:height="20" id="cell_echo">
    <text x="15" y="-4" class="nodelabel cell_echo" s:attribute="ref">echo</text>
    <s:alias val="$_inputExt_"/>
    <path d="M0,0 L0,20 L15,20 L30,10 L15,0 Z" class="cell_echo"/>
    <g s:x="28" s:y="10" s:pid="Y"/>
  </g>
  <g s:type="inputExt" transform="translate(951,960.5)" s:width="30" s:height="20" id="cell_respSeguidorLinea1">
    <text x="15" y="-4" class="nodelabel cell_respSeguidorLinea1" s:attribute="ref">respSeguidorLinea1</text>
    <s:alias val="$_inputExt_"/>
    <path d="M0,0 L0,20 L15,20 L30,10 L15,0 Z" class="cell_respSeguidorLinea1"/>
    <g s:x="28" s:y="10" s:pid="Y"/>
  </g>
  <g s:type="inputExt" transform="translate(951,1025.5)" s:width="30" s:height="20" id="cell_respSeguidorLinea2">
    <text x="15" y="-4" class="nodelabel cell_respSeguidorLinea2" s:attribute="ref">respSeguidorLinea2</text>
    <s:alias val="$_inputExt_"/>
    <path d="M0,0 L0,20 L15,20 L30,10 L15,0 Z" class="cell_respSeguidorLinea2"/>
    <g s:x="28" s:y="10" s:pid="Y"/>
  </g>
  <g s:type="outputExt" transform="translate(286,412)" s:width="30" s:height="20" id="cell_VCC_respSeguidorLinea1">
    <text x="15" y="-4" class="nodelabel cell_VCC_respSeguidorLinea1" s:attribute="ref">VCC_respSeguidorLinea1</text>
    <s:alias val="$_outputExt_"/>
    <path d="M30,0 L30,20 L15,20 L0,10 L15,0 Z" class="cell_VCC_respSeguidorLinea1"/>
    <g s:x="0" s:y="10" s:pid="A"/>
  </g>
  <g s:type="outputExt" transform="translate(77,282)" s:width="30" s:height="20" id="cell_GND_respSeguidorLinea1">
    <text x="15" y="-4" class="nodelabel cell_GND_respSeguidorLinea1" s:attribute="ref">GND_respSeguidorLinea1</text>
    <s:alias val="$_outputExt_"/>
    <path d="M30,0 L30,20 L15,20 L0,10 L15,0 Z" class="cell_GND_respSeguidorLinea1"/>
    <g s:x="0" s:y="10" s:pid="A"/>
  </g>
  <g s:type="outputExt" transform="translate(286,347)" s:width="30" s:height="20" id="cell_VCC_respSeguidorLinea2">
    <text x="15" y="-4" class="nodelabel cell_VCC_respSeguidorLinea2" s:attribute="ref">VCC_respSeguidorLinea2</text>
    <s:alias val="$_outputExt_"/>
    <path d="M30,0 L30,20 L15,20 L0,10 L15,0 Z" class="cell_VCC_respSeguidorLinea2"/>
    <g s:x="0" s:y="10" s:pid="A"/>
  </g>
  <g s:type="outputExt" transform="translate(77,87)" s:width="30" s:height="20" id="cell_GND_respSeguidorLinea2">
    <text x="15" y="-4" class="nodelabel cell_GND_respSeguidorLinea2" s:attribute="ref">GND_respSeguidorLinea2</text>
    <s:alias val="$_outputExt_"/>
    <path d="M30,0 L30,20 L15,20 L0,10 L15,0 Z" class="cell_GND_respSeguidorLinea2"/>
    <g s:x="0" s:y="10" s:pid="A"/>
  </g>
  <g s:type="outputExt" transform="translate(1425,22.5)" s:width="30" s:height="20" id="cell_trig">
    <text x="15" y="-4" class="nodelabel cell_trig" s:attribute="ref">trig</text>
    <s:alias val="$_outputExt_"/>
    <path d="M30,0 L30,20 L15,20 L0,10 L15,0 Z" class="cell_trig"/>
    <g s:x="0" s:y="10" s:pid="A"/>
  </g>
  <g s:type="outputExt" transform="translate(286,152)" s:width="30" s:height="20" id="cell_D8">
    <text x="15" y="-4" class="nodelabel cell_D8" s:attribute="ref">D8</text>
    <s:alias val="$_outputExt_"/>
    <path d="M30,0 L30,20 L15,20 L0,10 L15,0 Z" class="cell_D8"/>
    <g s:x="0" s:y="10" s:pid="A"/>
  </g>
  <g s:type="outputExt" transform="translate(286,87)" s:width="30" s:height="20" id="cell_D7">
    <text x="15" y="-4" class="nodelabel cell_D7" s:attribute="ref">D7</text>
    <s:alias val="$_outputExt_"/>
    <path d="M30,0 L30,20 L15,20 L0,10 L15,0 Z" class="cell_D7"/>
    <g s:x="0" s:y="10" s:pid="A"/>
  </g>
  <g s:type="outputExt" transform="translate(286,282)" s:width="30" s:height="20" id="cell_D6">
    <text x="15" y="-4" class="nodelabel cell_D6" s:attribute="ref">D6</text>
    <s:alias val="$_outputExt_"/>
    <path d="M30,0 L30,20 L15,20 L0,10 L15,0 Z" class="cell_D6"/>
    <g s:x="0" s:y="10" s:pid="A"/>
  </g>
  <g s:type="outputExt" transform="translate(286,217)" s:width="30" s:height="20" id="cell_D5">
    <text x="15" y="-4" class="nodelabel cell_D5" s:attribute="ref">D5</text>
    <s:alias val="$_outputExt_"/>
    <path d="M30,0 L30,20 L15,20 L0,10 L15,0 Z" class="cell_D5"/>
    <g s:x="0" s:y="10" s:pid="A"/>
  </g>
  <g s:type="outputExt" transform="translate(1425,87.5)" s:width="30" s:height="20" id="cell_D4">
    <text x="15" y="-4" class="nodelabel cell_D4" s:attribute="ref">D4</text>
    <s:alias val="$_outputExt_"/>
    <path d="M30,0 L30,20 L15,20 L0,10 L15,0 Z" class="cell_D4"/>
    <g s:x="0" s:y="10" s:pid="A"/>
  </g>
  <g s:type="outputExt" transform="translate(1425,152.5)" s:width="30" s:height="20" id="cell_D3">
    <text x="15" y="-4" class="nodelabel cell_D3" s:attribute="ref">D3</text>
    <s:alias val="$_outputExt_"/>
    <path d="M30,0 L30,20 L15,20 L0,10 L15,0 Z" class="cell_D3"/>
    <g s:x="0" s:y="10" s:pid="A"/>
  </g>
  <g s:type="outputExt" transform="translate(1425,400.5)" s:width="30" s:height="20" id="cell_D2">
    <text x="15" y="-4" class="nodelabel cell_D2" s:attribute="ref">D2</text>
    <s:alias val="$_outputExt_"/>
    <path d="M30,0 L30,20 L15,20 L0,10 L15,0 Z" class="cell_D2"/>
    <g s:x="0" s:y="10" s:pid="A"/>
  </g>
  <g s:type="outputExt" transform="translate(1425,335.5)" s:width="30" s:height="20" id="cell_D1">
    <text x="15" y="-4" class="nodelabel cell_D1" s:attribute="ref">D1</text>
    <s:alias val="$_outputExt_"/>
    <path d="M30,0 L30,20 L15,20 L0,10 L15,0 Z" class="cell_D1"/>
    <g s:x="0" s:y="10" s:pid="A"/>
  </g>
  <g s:type="outputExt" transform="translate(1425,465.5)" s:width="30" s:height="20" id="cell_A">
    <text x="15" y="-4" class="nodelabel cell_A" s:attribute="ref">A</text>
    <s:alias val="$_outputExt_"/>
    <path d="M30,0 L30,20 L15,20 L0,10 L15,0 Z" class="cell_A"/>
    <g s:x="0" s:y="10" s:pid="A"/>
  </g>
  <g s:type="outputExt" transform="translate(1425,530.5)" s:width="30" s:height="20" id="cell_B">
    <text x="15" y="-4" class="nodelabel cell_B" s:attribute="ref">B</text>
    <s:alias val="$_outputExt_"/>
    <path d="M30,0 L30,20 L15,20 L0,10 L15,0 Z" class="cell_B"/>
    <g s:x="0" s:y="10" s:pid="A"/>
  </g>
  <g s:type="outputExt" transform="translate(1425,595.5)" s:width="30" s:height="20" id="cell_C">
    <text x="15" y="-4" class="nodelabel cell_C" s:attribute="ref">C</text>
    <s:alias val="$_outputExt_"/>
    <path d="M30,0 L30,20 L15,20 L0,10 L15,0 Z" class="cell_C"/>
    <g s:x="0" s:y="10" s:pid="A"/>
  </g>
  <g s:type="outputExt" transform="translate(1425,660.5)" s:width="30" s:height="20" id="cell_D">
    <text x="15" y="-4" class="nodelabel cell_D" s:attribute="ref">D</text>
    <s:alias val="$_outputExt_"/>
    <path d="M30,0 L30,20 L15,20 L0,10 L15,0 Z" class="cell_D"/>
    <g s:x="0" s:y="10" s:pid="A"/>
  </g>
  <g s:type="outputExt" transform="translate(1425,725.5)" s:width="30" s:height="20" id="cell_E">
    <text x="15" y="-4" class="nodelabel cell_E" s:attribute="ref">E</text>
    <s:alias val="$_outputExt_"/>
    <path d="M30,0 L30,20 L15,20 L0,10 L15,0 Z" class="cell_E"/>
    <g s:x="0" s:y="10" s:pid="A"/>
  </g>
  <g s:type="outputExt" transform="translate(1425,790.5)" s:width="30" s:height="20" id="cell_F">
    <text x="15" y="-4" class="nodelabel cell_F" s:attribute="ref">F</text>
    <s:alias val="$_outputExt_"/>
    <path d="M30,0 L30,20 L15,20 L0,10 L15,0 Z" class="cell_F"/>
    <g s:x="0" s:y="10" s:pid="A"/>
  </g>
  <g s:type="outputExt" transform="translate(1425,855.5)" s:width="30" s:height="20" id="cell_G">
    <text x="15" y="-4" class="nodelabel cell_G" s:attribute="ref">G</text>
    <s:alias val="$_outputExt_"/>
    <path d="M30,0 L30,20 L15,20 L0,10 L15,0 Z" class="cell_G"/>
    <g s:x="0" s:y="10" s:pid="A"/>
  </g>
  <g s:type="outputExt" transform="translate(1425,218)" s:width="30" s:height="20" id="cell_H">
    <text x="15" y="-4" class="nodelabel cell_H" s:attribute="ref">H</text>
    <s:alias val="$_outputExt_"/>
    <path d="M30,0 L30,20 L15,20 L0,10 L15,0 Z" class="cell_H"/>
    <g s:x="0" s:y="10" s:pid="A"/>
  </g>
  <g s:type="outputExt" transform="translate(286,22)" s:width="30" s:height="20" id="cell_VCC">
    <text x="15" y="-4" class="nodelabel cell_VCC" s:attribute="ref">VCC</text>
    <s:alias val="$_outputExt_"/>
    <path d="M30,0 L30,20 L15,20 L0,10 L15,0 Z" class="cell_VCC"/>
    <g s:x="0" s:y="10" s:pid="A"/>
  </g>
  <g s:type="outputExt" transform="translate(77,152)" s:width="30" s:height="20" id="cell_GND">
    <text x="15" y="-4" class="nodelabel cell_GND" s:attribute="ref">GND</text>
    <s:alias val="$_outputExt_"/>
    <path d="M30,0 L30,20 L15,20 L0,10 L15,0 Z" class="cell_GND"/>
    <g s:x="0" s:y="10" s:pid="A"/>
  </g>
  <g s:type="outputExt" transform="translate(77,22)" s:width="30" s:height="20" id="cell_GND_motor_iz">
    <text x="15" y="-4" class="nodelabel cell_GND_motor_iz" s:attribute="ref">GND_motor_iz</text>
    <s:alias val="$_outputExt_"/>
    <path d="M30,0 L30,20 L15,20 L0,10 L15,0 Z" class="cell_GND_motor_iz"/>
    <g s:x="0" s:y="10" s:pid="A"/>
  </g>
  <g s:type="outputExt" transform="translate(77,217)" s:width="30" s:height="20" id="cell_GND_motor_de">
    <text x="15" y="-4" class="nodelabel cell_GND_motor_de" s:attribute="ref">GND_motor_de</text>
    <s:alias val="$_outputExt_"/>
    <path d="M30,0 L30,20 L15,20 L0,10 L15,0 Z" class="cell_GND_motor_de"/>
    <g s:x="0" s:y="10" s:pid="A"/>
  </g>
  <g s:type="outputExt" transform="translate(1425,985.5)" s:width="30" s:height="20" id="cell_m_izquierdo">
    <text x="15" y="-4" class="nodelabel cell_m_izquierdo" s:attribute="ref">m_izquierdo</text>
    <s:alias val="$_outputExt_"/>
    <path d="M30,0 L30,20 L15,20 L0,10 L15,0 Z" class="cell_m_izquierdo"/>
    <g s:x="0" s:y="10" s:pid="A"/>
  </g>
  <g s:type="outputExt" transform="translate(1425,920.5)" s:width="30" s:height="20" id="cell_m_derecho">
    <text x="15" y="-4" class="nodelabel cell_m_derecho" s:attribute="ref">m_derecho</text>
    <s:alias val="$_outputExt_"/>
    <path d="M30,0 L30,20 L15,20 L0,10 L15,0 Z" class="cell_m_derecho"/>
    <g s:x="0" s:y="10" s:pid="A"/>
  </g>
  <g s:type="constant" transform="translate(221,22)" s:width="30" s:height="20" id="cell_1">
    <text x="15" y="-4" class="nodelabel cell_1" s:attribute="ref">1</text>
    <s:alias val="$_constant_"/>
    <rect width="30" height="20" class="cell_1"/>
    <g s:x="30" s:y="10" s:pid="Y"/>
  </g>
  <g s:type="constant" transform="translate(12,22)" s:width="30" s:height="20" id="cell_0">
    <text x="15" y="-4" class="nodelabel cell_0" s:attribute="ref">0</text>
    <s:alias val="$_constant_"/>
    <rect width="30" height="20" class="cell_0"/>
    <g s:x="30" s:y="10" s:pid="Y"/>
  </g>
  <g s:type="split" transform="translate(1306,600)" s:width="5" s:height="40" id="cell_$split$,11,12,13,14,15,16,17,">
    <rect width="5" height="140" class="splitjoinBody" s:generic="body"/>
    <s:alias val="$_split_"/>
    <g s:x="0" s:y="20" s:pid="in"/>
    <g transform="translate(4,10)" s:x="4" s:y="10" s:pid="out0">
      <text x="5" y="-4">0</text>
    </g>
    <g transform="translate(4,30)" s:x="4" s:y="10" s:pid="out0">
      <text x="5" y="-4">1</text>
    </g>
    <g transform="translate(4,50)" s:x="4" s:y="10" s:pid="out0">
      <text x="5" y="-4">2</text>
    </g>
    <g transform="translate(4,70)" s:x="4" s:y="10" s:pid="out0">
      <text x="5" y="-4">3</text>
    </g>
    <g transform="translate(4,90)" s:x="4" s:y="10" s:pid="out0">
      <text x="5" y="-4">4</text>
    </g>
    <g transform="translate(4,110)" s:x="4" s:y="10" s:pid="out0">
      <text x="5" y="-4">5</text>
    </g>
    <g transform="translate(4,130)" s:x="4" s:y="10" s:pid="out0">
      <text x="5" y="-4">6</text>
    </g>
  </g>
  <line x1="982" x2="1173" y1="228" y2="228" class="net_21"/>
  <line x1="1173" x2="1173" y1="228" y2="97.5" class="net_21"/>
  <circle cx="1173" cy="228" r="2" style="fill:#000" class="net_21"/>
  <line x1="1173" x2="1271.5" y1="97.5" y2="97.5" class="net_21"/>
  <line x1="982" x2="1283.8" y1="228" y2="228" class="net_21"/>
  <line x1="982" x2="1153" y1="248" y2="248" class="net_22"/>
  <line x1="1153" x2="1153" y1="248" y2="162.5" class="net_22"/>
  <line x1="1153" x2="1271.5" y1="162.5" y2="162.5" class="net_22"/>
  <line x1="982" x2="1123" y1="288" y2="288" class="net_23"/>
  <line x1="1123" x2="1123" y1="288" y2="410.5" class="net_23"/>
  <circle cx="1123" cy="288" r="2" style="fill:#000" class="net_23"/>
  <line x1="1123" x2="1271.5" y1="410.5" y2="410.5" class="net_23"/>
  <line x1="982" x2="1283.8" y1="288" y2="288" class="net_23"/>
  <line x1="982" x2="1133" y1="268" y2="268" class="net_24"/>
  <line x1="1133" x2="1133" y1="268" y2="345.5" class="net_24"/>
  <line x1="1133" x2="1271.5" y1="345.5" y2="345.5" class="net_24"/>
  <line x1="536" x2="578" y1="216.5" y2="216.5" class="net_3"/>
  <line x1="578" x2="578" y1="216.5" y2="97" class="net_3"/>
  <line x1="578" x2="1163" y1="97" y2="97" class="net_3"/>
  <line x1="1163" x2="1163" y1="97" y2="248" class="net_3"/>
  <circle cx="578" cy="216.5" r="2" style="fill:#000" class="net_3"/>
  <line x1="1163" x2="1283.8" y1="248" y2="248" class="net_3"/>
  <line x1="536" x2="578" y1="216.5" y2="216.5" class="net_3"/>
  <line x1="578" x2="578" y1="216.5" y2="268" class="net_3"/>
  <line x1="578" x2="951" y1="268" y2="268" class="net_3"/>
  <line x1="536" x2="628" y1="216.5" y2="216.5" class="net_3"/>
  <line x1="659" x2="1143" y1="196.5" y2="196.5" class="net_25"/>
  <line x1="1143" x2="1143" y1="196.5" y2="268" class="net_25"/>
  <line x1="1143" x2="1283.8" y1="268" y2="268" class="net_25"/>
  <line x1="539" x2="684.5" y1="128.5" y2="128.5" class="net_26"/>
  <line x1="458" x2="470" y1="185.5" y2="185.5" class="net_2"/>
  <line x1="470" x2="470" y1="185.5" y2="928.5" class="net_2"/>
  <line x1="470" x2="1133" y1="928.5" y2="928.5" class="net_2"/>
  <line x1="1133" x2="1133" y1="928.5" y2="975.5" class="net_2"/>
  <circle cx="470" cy="185.5" r="2" style="fill:#000" class="net_2"/>
  <line x1="1133" x2="1292" y1="975.5" y2="975.5" class="net_2"/>
  <line x1="458" x2="470" y1="185.5" y2="185.5" class="net_2"/>
  <line x1="470" x2="470" y1="185.5" y2="128.5" class="net_2"/>
  <circle cx="470" cy="128.5" r="2" style="fill:#000" class="net_2"/>
  <line x1="470" x2="508" y1="128.5" y2="128.5" class="net_2"/>
  <line x1="458" x2="588" y1="185.5" y2="185.5" class="net_2"/>
  <line x1="588" x2="588" y1="185.5" y2="196.5" class="net_2"/>
  <line x1="588" x2="628" y1="196.5" y2="196.5" class="net_2"/>
  <line x1="458" x2="470" y1="185.5" y2="185.5" class="net_2"/>
  <line x1="470" x2="470" y1="185.5" y2="32.5" class="net_2"/>
  <line x1="470" x2="1271.5" y1="32.5" y2="32.5" class="net_2"/>
  <line x1="659" x2="806" y1="236.5" y2="236.5" class="net_29,30,31,32,33,34,35,36,37"/>
  <line x1="806" x2="806" y1="236.5" y2="939.5" class="net_29,30,31,32,33,34,35,36,37"/>
  <line x1="806" x2="1123" y1="939.5" y2="939.5" class="net_29,30,31,32,33,34,35,36,37"/>
  <line x1="1123" x2="1123" y1="939.5" y2="995.5" class="net_29,30,31,32,33,34,35,36,37"/>
  <line x1="1123" x2="1292" y1="995.5" y2="995.5" class="net_29,30,31,32,33,34,35,36,37"/>
  <line x1="979" x2="1113" y1="970.5" y2="970.5" class="net_4"/>
  <line x1="1113" x2="1113" y1="970.5" y2="1015.5" class="net_4"/>
  <line x1="1113" x2="1292" y1="1015.5" y2="1015.5" class="net_4"/>
  <line x1="979" x2="1292" y1="1035.5" y2="1035.5" class="net_5"/>
  <line x1="715.5" x2="826" y1="128.5" y2="128.5" class="net_27,28"/>
  <line x1="826" x2="826" y1="128.5" y2="228" class="net_27,28"/>
  <line x1="826" x2="951" y1="228" y2="228" class="net_27,28"/>
  <line x1="659" x2="816" y1="216.5" y2="216.5" class="net_38,39,40,41,42,43,44,45,46,47,48,49,50,51,52,53"/>
  <line x1="816" x2="816" y1="216.5" y2="248" class="net_38,39,40,41,42,43,44,45,46,47,48,49,50,51,52,53"/>
  <line x1="816" x2="951" y1="248" y2="248" class="net_38,39,40,41,42,43,44,45,46,47,48,49,50,51,52,53"/>
  <line x1="251" x2="261" y1="32" y2="32" class="net_54"/>
  <line x1="261" x2="261" y1="32" y2="422" class="net_54"/>
  <circle cx="261" cy="32" r="2" style="fill:#000" class="net_54"/>
  <line x1="261" x2="286" y1="422" y2="422" class="net_54"/>
  <line x1="251" x2="261" y1="32" y2="32" class="net_54"/>
  <line x1="261" x2="261" y1="32" y2="357" class="net_54"/>
  <circle cx="261" cy="357" r="2" style="fill:#000" class="net_54"/>
  <line x1="261" x2="286" y1="357" y2="357" class="net_54"/>
  <line x1="251" x2="261" y1="32" y2="32" class="net_54"/>
  <line x1="261" x2="261" y1="32" y2="162" class="net_54"/>
  <circle cx="261" cy="162" r="2" style="fill:#000" class="net_54"/>
  <line x1="261" x2="286" y1="162" y2="162" class="net_54"/>
  <line x1="251" x2="261" y1="32" y2="32" class="net_54"/>
  <line x1="261" x2="261" y1="32" y2="97" class="net_54"/>
  <circle cx="261" cy="97" r="2" style="fill:#000" class="net_54"/>
  <line x1="261" x2="286" y1="97" y2="97" class="net_54"/>
  <line x1="251" x2="261" y1="32" y2="32" class="net_54"/>
  <line x1="261" x2="261" y1="32" y2="292" class="net_54"/>
  <circle cx="261" cy="292" r="2" style="fill:#000" class="net_54"/>
  <line x1="261" x2="286" y1="292" y2="292" class="net_54"/>
  <line x1="251" x2="261" y1="32" y2="32" class="net_54"/>
  <line x1="261" x2="261" y1="32" y2="227" class="net_54"/>
  <circle cx="261" cy="227" r="2" style="fill:#000" class="net_54"/>
  <line x1="261" x2="286" y1="227" y2="227" class="net_54"/>
  <line x1="251" x2="286" y1="32" y2="32" class="net_54"/>
  <line x1="42" x2="52" y1="32" y2="32" class="net_55"/>
  <line x1="52" x2="52" y1="32" y2="292" class="net_55"/>
  <circle cx="52" cy="32" r="2" style="fill:#000" class="net_55"/>
  <line x1="52" x2="77" y1="292" y2="292" class="net_55"/>
  <line x1="42" x2="52" y1="32" y2="32" class="net_55"/>
  <line x1="52" x2="52" y1="32" y2="97" class="net_55"/>
  <circle cx="52" cy="97" r="2" style="fill:#000" class="net_55"/>
  <line x1="52" x2="77" y1="97" y2="97" class="net_55"/>
  <line x1="42" x2="52" y1="32" y2="32" class="net_55"/>
  <line x1="52" x2="52" y1="32" y2="162" class="net_55"/>
  <circle cx="52" cy="162" r="2" style="fill:#000" class="net_55"/>
  <line x1="52" x2="77" y1="162" y2="162" class="net_55"/>
  <line x1="42" x2="77" y1="32" y2="32" class="net_55"/>
  <line x1="42" x2="52" y1="32" y2="32" class="net_55"/>
  <line x1="52" x2="52" y1="32" y2="227" class="net_55"/>
  <circle cx="52" cy="227" r="2" style="fill:#000" class="net_55"/>
  <line x1="52" x2="77" y1="227" y2="227" class="net_55"/>
  <line x1="1302.5" x2="1425" y1="32.5" y2="32.5" class="net_6"/>
  <line x1="1296.5" x2="1425" y1="97.5" y2="97.5" class="net_7"/>
  <line x1="1296.5" x2="1425" y1="162.5" y2="162.5" class="net_8"/>
  <line x1="1296.5" x2="1425" y1="410.5" y2="410.5" class="net_9"/>
  <line x1="1296.5" x2="1425" y1="345.5" y2="345.5" class="net_10"/>
  <line x1="1310.5" x2="1310.5" y1="610" y2="475.5" class="net_11"/>
  <line x1="1310.5" x2="1425" y1="475.5" y2="475.5" class="net_11"/>
  <line x1="1311" x2="1400" y1="630.5" y2="630.5" class="net_12"/>
  <line x1="1400" x2="1400" y1="630.5" y2="540.5" class="net_12"/>
  <line x1="1400" x2="1425" y1="540.5" y2="540.5" class="net_12"/>
  <line x1="1311" x2="1410" y1="650.5" y2="650.5" class="net_13"/>
  <line x1="1410" x2="1410" y1="650.5" y2="605.5" class="net_13"/>
  <line x1="1410" x2="1425" y1="605.5" y2="605.5" class="net_13"/>
  <line x1="1311" x2="1425" y1="670.5" y2="670.5" class="net_14"/>
  <line x1="1311" x2="1410" y1="690.5" y2="690.5" class="net_15"/>
  <line x1="1410" x2="1410" y1="690.5" y2="735.5" class="net_15"/>
  <line x1="1410" x2="1425" y1="735.5" y2="735.5" class="net_15"/>
  <line x1="1311" x2="1400" y1="710.5" y2="710.5" class="net_16"/>
  <line x1="1400" x2="1400" y1="710.5" y2="800.5" class="net_16"/>
  <line x1="1400" x2="1425" y1="800.5" y2="800.5" class="net_16"/>
  <line x1="1310.5" x2="1310.5" y1="731" y2="865.5" class="net_17"/>
  <line x1="1310.5" x2="1425" y1="865.5" y2="865.5" class="net_17"/>
  <line x1="1314.8" x2="1425" y1="228" y2="228" class="net_18"/>
  <line x1="1323" x2="1425" y1="995.5" y2="995.5" class="net_19"/>
  <line x1="1323" x2="1400" y1="975.5" y2="975.5" class="net_20"/>
  <line x1="1400" x2="1400" y1="975.5" y2="930.5" class="net_20"/>
  <line x1="1400" x2="1425" y1="930.5" y2="930.5" class="net_20"/>
  <line x1="982" x2="1113" y1="308" y2="308" class="net_11,12,13,14,15,16,17"/>
  <line x1="1113" x2="1113" y1="308" y2="620.5" class="net_11,12,13,14,15,16,17"/>
  <line x1="1113" x2="1306" y1="620.5" y2="620.5" class="net_11,12,13,14,15,16,17"/>
</svg>
