<svg xmlns="http://www.w3.org/2000/svg" xmlns:xlink="http://www.w3.org/1999/xlink" xmlns:s="https://github.com/nturley/netlistsvg" width="868" height="271">
  <style>svg {
    stroke:#000;
    fill:none;
  }
  text {
    fill:#000;
    stroke:none;
    font-size:10px;
    font-weight: bold;
    font-family: "Courier New", monospace;
  }
  .nodelabel {
    text-anchor: middle;
  }
  .inputPortLabel {
    text-anchor: end;
  }
  .splitjoinBody {
    fill:#000;
  }</style>
  <g s:type="le" transform="translate(626,229)" s:width="25" s:height="25" id="cell_$le$./obtener_D_U_D_C_Distancia.v:38$134">
    <s:alias val="$le"/>
    <circle r="12.5" cx="12.5" cy="12.5" class="cell_$le$./obtener_D_U_D_C_Distancia.v:38$134"/>
    <line x1="7.5" x2="17.5" y1="12.5" y2="7.5" class="cell_$le$./obtener_D_U_D_C_Distancia.v:38$134"/>
    <line x1="7.5" x2="17.5" y1="12.5" y2="17.5" class="cell_$le$./obtener_D_U_D_C_Distancia.v:38$134"/>
    <line x1="7.5" x2="17.5" y1="15" y2="20" class="cell_$le$./obtener_D_U_D_C_Distancia.v:38$134"/>
    <g s:x="3" s:y="5" s:pid="A"/>
    <g s:x="3" s:y="20" s:pid="B"/>
    <g s:x="25" s:y="12.5" s:pid="Y"/>
  </g>
  <g s:type="lt" transform="translate(442,112.5)" s:width="25" s:height="25" id="cell_$lt$./obtener_D_U_D_C_Distancia.v:37$131">
    <s:alias val="$lt"/>
    <circle r="12.5" cx="12.5" cy="12.5" class="cell_$lt$./obtener_D_U_D_C_Distancia.v:37$131"/>
    <line x1="7.5" x2="17.5" y1="12.5" y2="7.5" class="cell_$lt$./obtener_D_U_D_C_Distancia.v:37$131"/>
    <line x1="7.5" x2="17.5" y1="12.5" y2="17.5" class="cell_$lt$./obtener_D_U_D_C_Distancia.v:37$131"/>
    <g s:x="3" s:y="5" s:pid="A"/>
    <g s:x="3" s:y="20" s:pid="B"/>
    <g s:x="25" s:y="12.5" s:pid="Y"/>
  </g>
  <g s:type="sub" transform="translate(442,12)" s:width="25" s:height="25" id="cell_$sub$./obtener_D_U_D_C_Distancia.v:37$132">
    <s:alias val="$sub"/>
    <circle r="12.5" cx="12.5" cy="12.5" class="cell_$sub$./obtener_D_U_D_C_Distancia.v:37$132"/>
    <line x1="7.5" x2="17.5" y1="12.5" y2="12.5" class="cell_$sub$./obtener_D_U_D_C_Distancia.v:37$132"/>
    <g s:x="3" s:y="5" s:pid="A"/>
    <g s:x="3" s:y="20" s:pid="B"/>
    <g s:x="25" s:y="12.5" s:pid="Y"/>
  </g>
  <g s:type="mux" transform="translate(524,71.5)" s:width="20" s:height="40" id="cell_$ternary$./obtener_D_U_D_C_Distancia.v:37$133">
    <s:alias val="$pmux"/>
    <s:alias val="$mux"/>
    <s:alias val="$_MUX_"/>
    <path d="M0,0 L20,10 L20,30 L0,40 Z" class="cell_$ternary$./obtener_D_U_D_C_Distancia.v:37$133"/>
    <g s:x="0" s:y="10" s:pid="A"/>
    <g s:x="0" s:y="30" s:pid="B"/>
    <g s:x="10" s:y="35" s:pid="S"/>
    <g s:x="20" s:y="20" s:pid="Y"/>
  </g>
  <g s:type="mux" transform="translate(687,115.5)" s:width="20" s:height="40" id="cell_$ternary$./obtener_D_U_D_C_Distancia.v:39$135">
    <s:alias val="$pmux"/>
    <s:alias val="$mux"/>
    <s:alias val="$_MUX_"/>
    <path d="M0,0 L20,10 L20,30 L0,40 Z" class="cell_$ternary$./obtener_D_U_D_C_Distancia.v:39$135"/>
    <g s:x="0" s:y="10" s:pid="A"/>
    <g s:x="0" s:y="30" s:pid="B"/>
    <g s:x="10" s:y="35" s:pid="S"/>
    <g s:x="20" s:y="20" s:pid="Y"/>
  </g>
  <g s:type="generic" transform="translate(509,145)" s:width="30" s:height="40" id="cell_bitsToBcd_i8">
    <text x="15" y="-4" class="nodelabel cell_bitsToBcd_i8" s:attribute="ref">bitsToBcd</text>
    <rect width="30" height="60" s:generic="body" class="cell_bitsToBcd_i8"/>
    <g transform="translate(0,10)" s:x="0" s:y="10" s:pid="in0" id="port_bitsToBcd_i8~l">
      <text x="-3" y="-4" class="inputPortLabel cell_bitsToBcd_i8">l</text>
    </g>
    <g transform="translate(30,10)" s:x="30" s:y="10" s:pid="out0" id="port_bitsToBcd_i8~c">
      <text x="5" y="-4" style="fill:#000; stroke:none" class="cell_bitsToBcd_i8">c</text>
    </g>
    <g transform="translate(30,30)" s:x="30" s:y="10" s:pid="out0" id="port_bitsToBcd_i8~d">
      <text x="5" y="-4" style="fill:#000; stroke:none" class="cell_bitsToBcd_i8">d</text>
    </g>
    <g transform="translate(30,50)" s:x="30" s:y="10" s:pid="out0" id="port_bitsToBcd_i8~u">
      <text x="5" y="-4" style="fill:#000; stroke:none" class="cell_bitsToBcd_i8">u</text>
    </g>
  </g>
  <g s:type="generic" transform="translate(102,87)" s:width="30" s:height="40" id="cell_contadorTiempoEcho_i0">
    <text x="15" y="-4" class="nodelabel cell_contadorTiempoEcho_i0" s:attribute="ref">contadorTiempoEcho</text>
    <rect width="30" height="40" s:generic="body" class="cell_contadorTiempoEcho_i0"/>
    <g transform="translate(0,10)" s:x="0" s:y="10" s:pid="in0" id="port_contadorTiempoEcho_i0~C">
      <text x="-3" y="-4" class="inputPortLabel cell_contadorTiempoEcho_i0">C</text>
    </g>
    <g transform="translate(0,30)" s:x="0" s:y="10" s:pid="in0" id="port_contadorTiempoEcho_i0~echo">
      <text x="-3" y="-4" class="inputPortLabel cell_contadorTiempoEcho_i0">echo</text>
    </g>
    <g transform="translate(30,10)" s:x="30" s:y="10" s:pid="out0" id="port_contadorTiempoEcho_i0~out">
      <text x="5" y="-4" style="fill:#000; stroke:none" class="cell_contadorTiempoEcho_i0">out</text>
    </g>
  </g>
  <g s:type="generic" transform="translate(276,87)" s:width="30" s:height="40" id="cell_medicion_distancia_i5">
    <text x="15" y="-4" class="nodelabel cell_medicion_distancia_i5" s:attribute="ref">medicion_distancia</text>
    <rect width="30" height="40" s:generic="body" class="cell_medicion_distancia_i5"/>
    <g transform="translate(0,10)" s:x="0" s:y="10" s:pid="in0" id="port_medicion_distancia_i5~cn">
      <text x="-3" y="-4" class="inputPortLabel cell_medicion_distancia_i5">cn</text>
    </g>
    <g transform="translate(30,10)" s:x="30" s:y="10" s:pid="out0" id="port_medicion_distancia_i5~l">
      <text x="5" y="-4" style="fill:#000; stroke:none" class="cell_medicion_distancia_i5">l</text>
    </g>
    <g transform="translate(30,30)" s:x="30" s:y="10" s:pid="out0" id="port_medicion_distancia_i5~ld">
      <text x="5" y="-4" style="fill:#000; stroke:none" class="cell_medicion_distancia_i5">ld</text>
    </g>
  </g>
  <g s:type="inputExt" transform="translate(12,107.5)" s:width="30" s:height="20" id="cell_echo">
    <text x="15" y="-4" class="nodelabel cell_echo" s:attribute="ref">echo</text>
    <s:alias val="$_inputExt_"/>
    <path d="M0,0 L0,20 L15,20 L30,10 L15,0 Z" class="cell_echo"/>
    <g s:x="28" s:y="10" s:pid="Y"/>
  </g>
  <g s:type="inputExt" transform="translate(12,42.5)" s:width="30" s:height="20" id="cell_clk">
    <text x="15" y="-4" class="nodelabel cell_clk" s:attribute="ref">clk</text>
    <s:alias val="$_inputExt_"/>
    <path d="M0,0 L0,20 L15,20 L30,10 L15,0 Z" class="cell_clk"/>
    <g s:x="28" s:y="10" s:pid="Y"/>
  </g>
  <g s:type="outputExt" transform="translate(742,125.5)" s:width="30" s:height="20" id="cell_distancia_calculada">
    <text x="15" y="-4" class="nodelabel cell_distancia_calculada" s:attribute="ref">distancia_calculada</text>
    <s:alias val="$_outputExt_"/>
    <path d="M30,0 L30,20 L15,20 L0,10 L15,0 Z" class="cell_distancia_calculada"/>
    <g s:x="0" s:y="10" s:pid="A"/>
  </g>
  <g s:type="outputExt" transform="translate(742,231.5)" s:width="30" s:height="20" id="cell_distanciaEnElRango">
    <text x="15" y="-4" class="nodelabel cell_distanciaEnElRango" s:attribute="ref">distanciaEnElRango</text>
    <s:alias val="$_outputExt_"/>
    <path d="M30,0 L30,20 L15,20 L0,10 L15,0 Z" class="cell_distanciaEnElRango"/>
    <g s:x="0" s:y="10" s:pid="A"/>
  </g>
  <g s:type="constant" transform="translate(509,239)" s:width="30" s:height="20" id="cell_10001100">
    <text x="15" y="-4" class="nodelabel cell_10001100" s:attribute="ref">0x8c</text>
    <s:alias val="$_constant_"/>
    <rect width="30" height="20" class="cell_10001100"/>
    <g s:x="30" s:y="10" s:pid="Y"/>
  </g>
  <g s:type="constant" transform="translate(276,22)" s:width="30" s:height="20" id="cell_1010">
    <text x="15" y="-4" class="nodelabel cell_1010" s:attribute="ref">0xa</text>
    <s:alias val="$_constant_"/>
    <rect width="30" height="20" class="cell_1010"/>
    <g s:x="30" s:y="10" s:pid="Y"/>
  </g>
  <g s:type="constant" transform="translate(616,70)" s:width="30" s:height="20" id="cell_1010101111001101">
    <text x="15" y="-4" class="nodelabel cell_1010101111001101" s:attribute="ref">0xabcd</text>
    <s:alias val="$_constant_"/>
    <rect width="30" height="20" class="cell_1010101111001101"/>
    <g s:x="30" s:y="10" s:pid="Y"/>
  </g>
  <g s:type="join" transform="translate(635,125)" s:width="4" s:height="40" id="cell_$join$,39,40,41,42,43,44,45,46,47,48,49,50,51,52,53,54,">
    <rect width="5" height="80" class="splitjoinBody" s:generic="body"/>
    <s:alias val="$_join_"/>
    <g s:x="5" s:y="20" s:pid="out"/>
    <g transform="translate(0,10)" s:x="0" s:y="10" s:pid="in0">
      <text x="-3" y="-4" class="inputPortLabel">0:3</text>
    </g>
    <g transform="translate(0,30)" s:x="0" s:y="10" s:pid="in0">
      <text x="-3" y="-4" class="inputPortLabel">4:7</text>
    </g>
    <g transform="translate(0,50)" s:x="0" s:y="10" s:pid="in0">
      <text x="-3" y="-4" class="inputPortLabel">8:11</text>
    </g>
    <g transform="translate(0,70)" s:x="0" s:y="10" s:pid="in0">
      <text x="-3" y="-4" class="inputPortLabel">12:15</text>
    </g>
  </g>
  <line x1="307" x2="412" y1="97.5" y2="97.5" class="net_21,22,23,24,25,26,27,28,29"/>
  <line x1="412" x2="412" y1="97.5" y2="218" class="net_21,22,23,24,25,26,27,28,29"/>
  <line x1="412" x2="591" y1="218" y2="218" class="net_21,22,23,24,25,26,27,28,29"/>
  <line x1="591" x2="591" y1="218" y2="234" class="net_21,22,23,24,25,26,27,28,29"/>
  <line x1="591" x2="629" y1="234" y2="234" class="net_21,22,23,24,25,26,27,28,29"/>
  <line x1="307" x2="412" y1="97.5" y2="97.5" class="net_21,22,23,24,25,26,27,28,29"/>
  <line x1="412" x2="412" y1="97.5" y2="218" class="net_21,22,23,24,25,26,27,28,29"/>
  <line x1="412" x2="477" y1="218" y2="218" class="net_21,22,23,24,25,26,27,28,29"/>
  <line x1="477" x2="477" y1="218" y2="155.5" class="net_21,22,23,24,25,26,27,28,29"/>
  <circle cx="477" cy="218" r="2" style="fill:#000" class="net_21,22,23,24,25,26,27,28,29"/>
  <line x1="477" x2="509" y1="155.5" y2="155.5" class="net_21,22,23,24,25,26,27,28,29"/>
  <line x1="539" x2="629" y1="249" y2="249" class="net_75,76,77,78,79,80,81,82"/>
  <line x1="307" x2="445" y1="117.5" y2="117.5" class="net_30,31,32,33"/>
  <line x1="307" x2="432" y1="117.5" y2="117.5" class="net_30,31,32,33"/>
  <line x1="432" x2="432" y1="117.5" y2="17" class="net_30,31,32,33"/>
  <circle cx="432" cy="117.5" r="2" style="fill:#000" class="net_30,31,32,33"/>
  <line x1="432" x2="445" y1="17" y2="17" class="net_30,31,32,33"/>
  <line x1="307" x2="432" y1="117.5" y2="117.5" class="net_30,31,32,33"/>
  <line x1="432" x2="432" y1="117.5" y2="101.5" class="net_30,31,32,33"/>
  <circle cx="432" cy="101.5" r="2" style="fill:#000" class="net_30,31,32,33"/>
  <line x1="432" x2="524" y1="101.5" y2="101.5" class="net_30,31,32,33"/>
  <line x1="306" x2="422" y1="32" y2="32" class="net_83,84,85,86"/>
  <line x1="422" x2="422" y1="32" y2="132.5" class="net_83,84,85,86"/>
  <circle cx="422" cy="32" r="2" style="fill:#000" class="net_83,84,85,86"/>
  <line x1="422" x2="445" y1="132.5" y2="132.5" class="net_83,84,85,86"/>
  <line x1="306" x2="445" y1="32" y2="32" class="net_83,84,85,86"/>
  <line x1="467" x2="477" y1="24.5" y2="24.5" class="net_35,36,37,38"/>
  <line x1="477" x2="477" y1="24.5" y2="81.5" class="net_35,36,37,38"/>
  <line x1="477" x2="524" y1="81.5" y2="81.5" class="net_35,36,37,38"/>
  <line x1="467" x2="534" y1="125" y2="125" class="net_34"/>
  <line x1="534" x2="534" y1="125" y2="106.5" class="net_34"/>
  <line x1="646" x2="662" y1="80" y2="80" class="net_91,92,93,94,95,96,97,98,99,100,101,102,103,104,105,106"/>
  <line x1="662" x2="662" y1="80" y2="125.5" class="net_91,92,93,94,95,96,97,98,99,100,101,102,103,104,105,106"/>
  <line x1="662" x2="687" y1="125.5" y2="125.5" class="net_91,92,93,94,95,96,97,98,99,100,101,102,103,104,105,106"/>
  <line x1="641" x2="687" y1="145.5" y2="145.5" class="net_39,40,41,42,43,44,45,46,47,48,49,50,51,52,53,54"/>
  <line x1="651" x2="662" y1="241.5" y2="241.5" class="net_20"/>
  <line x1="662" x2="662" y1="241.5" y2="231.5" class="net_20"/>
  <line x1="662" x2="697" y1="231.5" y2="231.5" class="net_20"/>
  <circle cx="662" cy="241.5" r="2" style="fill:#000" class="net_20"/>
  <line x1="697" x2="697" y1="231.5" y2="150.5" class="net_20"/>
  <line x1="651" x2="742" y1="241.5" y2="241.5" class="net_20"/>
  <line x1="40" x2="52" y1="52.5" y2="52.5" class="net_3"/>
  <line x1="52" x2="52" y1="52.5" y2="97.5" class="net_3"/>
  <line x1="52" x2="102" y1="97.5" y2="97.5" class="net_3"/>
  <line x1="40" x2="102" y1="117.5" y2="117.5" class="net_2"/>
  <line x1="133" x2="276" y1="97.5" y2="97.5" class="net_55,56,57,58,59,60,61,62,63,64,65,66,67,68,69,70,71,72,73,74"/>
  <line x1="707" x2="742" y1="135.5" y2="135.5" class="net_4,5,6,7,8,9,10,11,12,13,14,15,16,17,18,19"/>
  <line x1="544" x2="591" y1="91.5" y2="91.5" class="net_39,40,41,42"/>
  <line x1="591" x2="591" y1="91.5" y2="135.5" class="net_39,40,41,42"/>
  <line x1="591" x2="635" y1="135.5" y2="135.5" class="net_39,40,41,42"/>
  <line x1="540" x2="601" y1="195.5" y2="195.5" class="net_43,44,45,46"/>
  <line x1="601" x2="601" y1="195.5" y2="155.5" class="net_43,44,45,46"/>
  <line x1="601" x2="635" y1="155.5" y2="155.5" class="net_43,44,45,46"/>
  <line x1="540" x2="635" y1="175.5" y2="175.5" class="net_47,48,49,50"/>
  <line x1="540" x2="591" y1="155.5" y2="155.5" class="net_51,52,53,54"/>
  <line x1="591" x2="591" y1="155.5" y2="215" class="net_51,52,53,54"/>
  <line x1="591" x2="635.5" y1="215" y2="215" class="net_51,52,53,54"/>
  <line x1="635.5" x2="635.5" y1="215" y2="196" class="net_51,52,53,54"/>
</svg>
